<svg width="23" height="21" viewBox="0 0 23 21" fill="none" xmlns="http://www.w3.org/2000/svg">
<g clip-path="url(#clip0)">
<path d="M23 8.64262L11.5 20.9521L11.4312 20.8787L0 8.64262L5.09811 4.08931H17.9019L23 8.64262Z" fill="#00E8F2"/>
<path d="M23 8.64262L11.5 20.9521V4.08931H17.9019L23 8.64262Z" fill="#00CEF5"/>
<path d="M15.3521 8.63243H7.64795L11.4312 4.17051L11.5 4.08931L15.3521 8.63243Z" fill="#9CFDFF"/>
<path d="M17.9017 4.08931L15.2959 8.63243H23L17.9017 4.08931Z" fill="#00F8FE"/>
<path d="M5.09828 4.08931L7.7041 8.63243H0L5.09828 4.08931Z" fill="#9CFDFF"/>
<path d="M10.8262 0.0830688H12.1738V2.6167H10.8262V0.0830688Z" fill="#9CFDFF"/>
<path d="M14.2334 2.67197L15.3261 0.296761L16.5697 0.767886L15.477 3.14294L14.2334 2.67197Z" fill="#00F8FE"/>
<path d="M6.42996 0.767566L7.67356 0.29644L8.76625 2.67165L7.52265 3.14262L6.42996 0.767566Z" fill="#9CFDFF"/>
<path d="M15.2959 8.63243L11.5 20.9521L11.4312 20.7292L7.7041 8.63243H15.2959Z" fill="#00F8FE"/>
<path d="M11.5 0.0830688H12.1738V2.6167H11.5V0.0830688Z" fill="#00F8FE"/>
<path d="M15.3521 8.63243H15.2959L11.5 20.9521V4.08931L15.3521 8.63243Z" fill="#9CFDFF"/>
<path d="M15.3521 8.63243H11.5V4.08931L15.3521 8.63243Z" fill="#00F8FE"/>
</g>
<defs>
<clipPath id="clip0">
<rect width="23" height="20.869" fill="white" transform="translate(0 0.0830688)"/>
</clipPath>
</defs>
</svg>
