<svg width="111" height="33" className="express-icon" viewBox="0 0 111 33" fill="none" xmlns="http://www.w3.org/2000/svg">
<path className="dark:fill-white" d="M0.722367 25.6039V12.9919H16.1462V12.2542H0.722367V0.748479H17.1213V0.0109863H0V26.3414H17.2657V25.6039H0.722584H0.722367ZM31.1726 7.38635L24.7792 15.9788L18.5301 7.38658H17.5909L24.3456 16.5322L16.9405 26.3412H17.8075L24.7788 17.0849L31.7863 26.3412H32.6893L25.2484 16.5317L32.0391 7.38613H31.1724L31.1726 7.38635ZM34.8568 32.8318V21.0313H34.929C35.3626 22.7522 36.2174 24.1351 37.4937 25.18C38.77 26.2247 40.3953 26.7473 42.3699 26.7473C43.6462 26.7473 44.7781 26.483 45.7654 25.9545C46.7527 25.4259 47.5774 24.7068 48.2397 23.7971C48.9018 22.8874 49.4076 21.8303 49.7568 20.6256C50.1059 19.4211 50.2806 18.1548 50.2806 16.8275C50.2806 15.4014 50.0998 14.086 49.7386 12.8815C49.3774 11.6767 48.8537 10.6318 48.1675 9.74691C47.4811 8.86178 46.6504 8.1732 45.675 7.68184C44.6998 7.19003 43.5981 6.94412 42.3699 6.94412C41.4308 6.94412 40.5579 7.08556 39.7512 7.3682C38.9445 7.65107 38.2282 8.05036 37.6021 8.56674C36.9723 9.08708 36.4242 9.70265 35.9766 10.3921C35.5191 11.0929 35.1699 11.8611 34.929 12.6971H34.8568V7.38635H34.1345V32.8318H34.8568ZM42.3699 26.0463C40.1066 26.0463 38.2883 25.2535 36.9157 23.6679C35.5432 22.0822 34.8568 19.8018 34.8568 16.827C34.8568 15.5977 35.0255 14.4299 35.3626 13.3237C35.6997 12.2175 36.1873 11.2462 36.8253 10.4105C37.4636 9.57448 38.2523 8.9107 39.1912 8.41911C40.1304 7.9273 41.1901 7.68139 42.3699 7.68139C43.574 7.68139 44.6276 7.9273 45.5306 8.41911C46.4336 8.9107 47.1802 9.58068 47.7701 10.4288C48.36 11.277 48.8055 12.2482 49.1067 13.3421C49.4076 14.4361 49.558 15.5977 49.558 16.827C49.558 17.9335 49.4197 19.0337 49.1426 20.1276C48.8658 21.2216 48.4383 22.205 47.8603 23.078C47.2825 23.9505 46.5422 24.6634 45.639 25.2168C44.7358 25.7699 43.6462 26.0463 42.3699 26.0463ZM54.2539 26.3414V15.6101C54.2539 14.5776 54.3982 13.5694 54.6874 12.5862C54.9762 11.6028 55.4217 10.7361 56.0238 9.98639C56.6258 9.2365 57.3903 8.64642 58.3175 8.21614C59.2445 7.78587 60.3463 7.60769 61.6226 7.68139V6.9439C60.5147 6.91956 59.5457 7.04218 58.7149 7.31265C57.8839 7.58312 57.1676 7.95187 56.5656 8.41911C55.9635 8.88613 55.482 9.43305 55.1208 10.0601C54.7599 10.6861 54.4921 11.3634 54.326 12.0698H54.2539V7.38635H53.5315V26.3416H54.2539V26.3414ZM62.5255 17.0114H78.0575C78.1058 15.7084 77.9794 14.4547 77.6783 13.25C77.3774 12.0453 76.8957 10.9758 76.2336 10.0417C75.5713 9.10746 74.7164 8.35758 73.6689 7.79206C72.6213 7.22655 71.3752 6.9439 69.9304 6.9439C68.8948 6.9439 67.8834 7.16524 66.8961 7.60791C65.9089 8.05036 65.0419 8.69556 64.2954 9.54372C63.549 10.3919 62.947 11.4306 62.4895 12.6601C62.0321 13.8892 61.8032 15.2905 61.8032 16.864C61.8032 18.2653 61.9597 19.5745 62.2727 20.7914C62.5858 22.0083 63.0673 23.0656 63.7175 23.9629C64.3679 24.8602 65.2047 25.5547 66.228 26.0463C67.2513 26.5381 68.4855 26.7716 69.9304 26.7471C72.0494 26.7471 73.8315 26.1384 75.2762 24.9217C76.7212 23.7046 77.576 21.9899 77.8409 19.7772H77.1185C76.8055 21.8671 76.0046 23.4343 74.7164 24.479C73.428 25.524 71.8088 26.0463 69.858 26.0463C68.5336 26.0463 67.4139 25.8128 66.4988 25.3458C65.5839 24.8788 64.8372 24.2393 64.2592 23.4281C63.6815 22.6167 63.254 21.6641 62.9771 20.57C62.7 19.4762 62.5496 18.2898 62.5255 17.0114ZM77.3351 16.2739H62.5257C62.5977 14.9463 62.8386 13.754 63.2479 12.6969C63.6574 11.6396 64.1931 10.7361 64.8554 9.98639C65.5175 9.2365 66.2882 8.66501 67.1671 8.27148C68.046 7.87816 68.9913 7.68139 70.0026 7.68139C71.2067 7.68139 72.266 7.90893 73.1813 8.36377C74.0962 8.81862 74.8608 9.43947 75.475 10.2261C76.089 11.0127 76.5525 11.9286 76.8655 12.9733C77.1786 14.0183 77.3351 15.1185 77.3351 16.2739ZM93.0479 12.9919H93.7703C93.7703 10.8775 93.1682 9.34097 91.9644 8.38215C90.7601 7.42332 89.1226 6.9439 87.0518 6.9439C85.8958 6.9439 84.9206 7.09153 84.1259 7.38658C83.3313 7.6814 82.6811 8.06254 82.1753 8.52956C81.6698 8.99658 81.3086 9.51295 81.0918 10.0785C80.875 10.644 80.7666 11.1849 80.7666 11.7011C80.7666 12.7336 80.9472 13.5572 81.3086 14.1719C81.6698 14.7865 82.2356 15.2659 83.0061 15.6101C83.536 15.8558 84.1378 16.0771 84.8122 16.2741C85.4865 16.4707 86.2691 16.6796 87.1601 16.9007C87.9547 17.0977 88.7373 17.2943 89.5081 17.4908C90.2786 17.6876 90.9589 17.9518 91.5488 18.2836C92.1389 18.6156 92.6204 19.0397 92.9937 19.5561C93.3668 20.0722 93.5535 20.7484 93.5535 21.5842C93.5535 22.3956 93.367 23.084 92.9937 23.6493C92.6236 24.2118 92.1364 24.6841 91.567 25.0324C90.989 25.3887 90.3447 25.6468 89.6345 25.8066C88.924 25.9664 88.2318 26.0463 87.5575 26.0463C85.3661 26.0463 83.6864 25.5485 82.5185 24.553C81.3506 23.5572 80.7668 21.9899 80.7668 19.8509H80.0442C80.0442 22.2358 80.6764 23.9813 81.9405 25.0877C83.2049 26.194 85.0772 26.7471 87.5575 26.7471C88.3521 26.7471 89.1527 26.6548 89.9596 26.4704C90.7661 26.286 91.4887 25.985 92.1267 25.5669C92.7594 25.1547 93.2908 24.5997 93.6799 23.9445C94.0773 23.2805 94.2761 22.4693 94.2761 21.5105C94.2761 20.6008 94.1013 19.8633 93.7523 19.2978C93.403 18.7325 92.9456 18.2653 92.3795 17.8965C91.8137 17.5278 91.1757 17.2389 90.4652 17.03C89.7508 16.8198 89.0343 16.6169 88.3159 16.4213C87.4318 16.1845 86.5468 15.951 85.661 15.7208C84.9026 15.524 84.1983 15.2905 83.5481 15.02C82.922 14.7495 82.4223 14.3624 82.0489 13.8584C81.6756 13.3545 81.4892 12.6353 81.4892 11.7011C81.4892 11.5291 81.5373 11.2217 81.6336 10.7792C81.7298 10.3365 81.9588 9.8879 82.3199 9.43305C82.6811 8.97843 83.2348 8.57272 83.9815 8.21614C84.7279 7.85979 85.7514 7.68139 87.0518 7.68139C87.9428 7.68139 88.7553 7.77989 89.4899 7.97644C90.2244 8.1732 90.8565 8.48662 91.3862 8.91689C91.916 9.34717 92.3253 9.89409 92.6143 10.5579C92.9033 11.2219 93.0479 12.0331 93.0479 12.9919ZM109.772 12.9919H110.494C110.494 10.8775 109.892 9.34097 108.688 8.38215C107.484 7.42332 105.847 6.9439 103.776 6.9439C102.62 6.9439 101.645 7.09153 100.85 7.38658C100.055 7.6814 99.4051 8.06254 98.8995 8.52956C98.3937 8.99658 98.0325 9.51295 97.8157 10.0785C97.5989 10.644 97.4907 11.1849 97.4907 11.7011C97.4907 12.7336 97.6713 13.5572 98.0327 14.1719C98.3937 14.7865 98.9598 15.2659 99.7302 15.6101C100.26 15.8558 100.862 16.0771 101.536 16.2741C102.21 16.4707 102.993 16.6796 103.884 16.9007C104.679 17.0977 105.461 17.2943 106.232 17.4908C107.003 17.6876 107.683 17.9518 108.273 18.2836C108.863 18.6156 109.345 19.0397 109.718 19.5561C110.091 20.0722 110.278 20.7484 110.278 21.5842C110.278 22.3956 110.091 23.084 109.718 23.6493C109.348 24.2118 108.86 24.6841 108.291 25.0324C107.713 25.3887 107.069 25.6468 106.358 25.8066C105.648 25.9664 104.956 26.0463 104.281 26.0463C102.09 26.0463 100.411 25.5485 99.2427 24.553C98.0746 23.5572 97.4907 21.9899 97.4907 19.8509H96.7684C96.7684 22.2358 97.4003 23.9813 98.6647 25.0877C99.9288 26.194 101.801 26.7471 104.281 26.7471C105.076 26.7471 105.877 26.6548 106.684 26.4704C107.49 26.286 108.213 25.985 108.851 25.5669C109.484 25.1547 110.015 24.5997 110.404 23.9445C110.801 23.2805 111 22.4693 111 21.5105C111 20.6008 110.825 19.8633 110.476 19.2978C110.127 18.7325 109.67 18.2653 109.104 17.8965C108.538 17.5278 107.9 17.2389 107.189 17.03C106.475 16.8198 105.758 16.6169 105.04 16.4213C104.156 16.1845 103.271 15.951 102.385 15.7208C101.627 15.524 100.922 15.2905 100.272 15.02C99.6459 14.7495 99.1462 14.3624 98.7731 13.8584C98.3998 13.3545 98.2131 12.6353 98.2131 11.7011C98.2131 11.5291 98.2612 11.2217 98.3577 10.7792C98.454 10.3365 98.6829 9.8879 99.0439 9.43305C99.4051 8.97843 99.959 8.57272 100.705 8.21614C101.452 7.85979 102.475 7.68139 103.776 7.68139C104.667 7.68139 105.479 7.77989 106.214 7.97644C106.949 8.1732 107.58 8.48662 108.11 8.91689C108.64 9.34717 109.049 9.89409 109.338 10.5579C109.627 11.2219 109.772 12.0331 109.772 12.9919H109.772Z" fill="#222222"/>
</svg>
