<svg width="47" height="47" className="figma-icon" viewBox="0 0 47 47" fill="none" xmlns="http://www.w3.org/2000/svg">
<path d="M15.6727 47C17.7502 47 19.7427 46.1747 21.2117 44.7057C22.6807 43.2366 23.506 41.2442 23.506 39.1666V31.3333H15.6727C13.5952 31.3333 11.6027 32.1586 10.1337 33.6276C8.66465 35.0967 7.83936 37.0891 7.83936 39.1666C7.83936 41.2442 8.66465 43.2366 10.1337 44.7057C11.6027 46.1747 13.5952 47 15.6727 47Z" fill="#0ACF83"/>
<path d="M7.83936 23.5C7.83936 21.4225 8.66465 19.4301 10.1337 17.961C11.6027 16.492 13.5952 15.6667 15.6727 15.6667H23.506V31.3334H15.6727C13.5952 31.3334 11.6027 30.5081 10.1337 29.039C8.66465 27.57 7.83936 25.5775 7.83936 23.5Z" fill="#A259FF"/>
<path d="M7.83936 7.83333C7.83935 5.75686 8.66381 3.76535 10.1315 2.29649C11.5992 0.827634 13.5901 0.00162224 15.6666 0L23.4999 0V15.6667H15.6727C13.5952 15.6667 11.6027 14.8414 10.1337 13.3723C8.66465 11.9033 7.83936 9.91086 7.83936 7.83333Z" fill="#F24E1E"/>
<path d="M23.5061 0H31.3394C33.417 0 35.4094 0.825295 36.8784 2.29433C38.3475 3.76337 39.1728 5.7558 39.1728 7.83333C39.1728 9.91086 38.3475 11.9033 36.8784 13.3723C35.4094 14.8414 33.417 15.6667 31.3394 15.6667H23.5061V0Z" fill="#FF7262"/>
<path d="M39.1728 23.5C39.1728 25.5775 38.3475 27.57 36.8784 29.039C35.4094 30.5081 33.417 31.3334 31.3394 31.3334C29.2619 31.3334 27.2695 30.5081 25.8004 29.039C24.3314 27.57 23.5061 25.5775 23.5061 23.5C23.5061 21.4225 24.3314 19.4301 25.8004 17.961C27.2695 16.492 29.2619 15.6667 31.3394 15.6667C33.417 15.6667 35.4094 16.492 36.8784 17.961C38.3475 19.4301 39.1728 21.4225 39.1728 23.5Z" fill="#1ABCFE"/>
</svg>
