<svg width="159" height="80" className="node-icon" viewBox="0 0 159 80" fill="none" xmlns="http://www.w3.org/2000/svg">
<path d="M141.489 33.7755C141.129 33.7755 140.78 33.8501 140.471 34.0262L130.684 39.7132C130.051 40.0802 129.666 40.7738 129.666 41.5114V52.8649C129.666 53.6021 130.051 54.2946 130.684 54.6628L133.24 56.1448C134.482 56.7609 134.94 56.751 135.505 56.751C137.343 56.751 138.393 55.6285 138.393 53.6774V42.4764C138.393 42.3181 138.257 42.2047 138.102 42.2047H136.876C136.719 42.2047 136.585 42.321 136.585 42.4764V53.6832C136.585 54.548 135.69 55.4181 134.238 54.6869L131.581 53.1189C131.487 53.0674 131.415 52.9736 131.415 52.8681V41.5146C131.415 41.407 131.486 41.2972 131.581 41.2429L141.346 35.5763C141.438 35.5234 141.547 35.5234 141.637 35.5763L151.403 41.2429C151.496 41.2989 151.569 41.4036 151.569 41.5146V52.8681C151.569 52.9765 151.515 53.0875 151.424 53.1398L141.638 58.8064C141.551 58.8567 141.435 58.8567 141.347 58.8064L138.833 57.3011C138.758 57.257 138.656 57.2604 138.583 57.3011C137.89 57.6969 137.759 57.7428 137.108 57.9701C136.948 58.0262 136.704 58.1136 137.192 58.3885L140.474 60.3355C140.787 60.5174 141.135 60.6072 141.493 60.6072C141.855 60.6072 142.198 60.52 142.511 60.3355L152.297 54.6689C152.93 54.2981 153.315 53.6082 153.315 52.871V41.5175C153.315 40.7799 152.93 40.0877 152.297 39.7193L142.511 34.0323C142.204 33.8562 141.852 33.7816 141.493 33.7816L141.489 33.7755ZM144.107 41.8883C141.32 41.8883 139.661 43.0817 139.661 45.0662C139.661 47.2166 141.308 47.8106 143.982 48.0768C147.182 48.3921 147.432 48.8649 147.432 49.4987C147.432 50.598 146.561 51.0667 144.502 51.0667C141.916 51.0667 141.347 50.4169 141.157 49.1197C141.134 48.9808 141.028 48.8689 140.887 48.8689H139.616C139.54 48.8706 139.467 48.902 139.412 48.9565C139.358 49.011 139.327 49.0845 139.325 49.1616C139.325 50.8188 140.221 52.7786 144.499 52.7786C147.596 52.7786 149.382 51.5581 149.382 49.4123C149.382 47.291 147.939 46.7177 144.935 46.3175C141.903 45.9107 141.611 45.716 141.611 45.0002C141.611 44.4098 141.856 43.6199 144.104 43.6199C146.112 43.6199 146.854 44.0558 147.159 45.4181C147.185 45.546 147.297 45.6506 147.429 45.6506H148.699C148.777 45.6506 148.853 45.6024 148.907 45.546C148.96 45.4858 148.998 45.4181 148.99 45.3368C148.794 42.9905 147.239 41.8868 144.108 41.8868L144.107 41.8883Z" fill="#83CD29"/>
<path d="M83.9556 18.892C83.8462 18.8922 83.7388 18.9211 83.644 18.9757C83.5496 19.0313 83.4712 19.1107 83.4165 19.206C83.3619 19.3014 83.3329 19.4094 83.3324 19.5194V35.5143C83.3324 35.6713 83.2596 35.8119 83.1244 35.8907C83.0582 35.9295 82.9829 35.95 82.9063 35.95C82.8296 35.95 82.7543 35.9295 82.6881 35.8907L80.0908 34.3854C79.9014 34.2751 79.6864 34.217 79.4675 34.217C79.2486 34.217 79.0336 34.2751 78.8442 34.3854L68.4765 40.4068C68.0889 40.6317 67.8527 41.0647 67.8527 41.5148V53.558C67.8524 53.7783 67.9099 53.9949 68.0193 54.1858C68.1288 54.3767 68.2864 54.5351 68.4762 54.6451L78.8442 60.6668C79.0335 60.7774 79.2486 60.8356 79.4675 60.8356C79.6864 60.8356 79.9015 60.7774 80.0908 60.6668L90.4588 54.6451C90.6486 54.5351 90.8062 54.3767 90.9157 54.1858C91.0251 53.9949 91.0826 53.7783 91.0823 53.558V23.5337C91.0823 23.0769 90.8345 22.6483 90.4383 22.4257L84.2674 18.9545C84.1704 18.9002 84.063 18.8906 83.9556 18.8918V18.892ZM17.2593 33.9251C17.0615 33.9332 16.8758 33.9678 16.6982 34.0715L6.33046 40.093C6.14054 40.2028 5.98285 40.3612 5.87341 40.5521C5.76396 40.743 5.70665 40.9597 5.70728 41.1801L5.72836 57.3427C5.72836 57.5676 5.84387 57.7762 6.04024 57.8861C6.23286 58.0023 6.47168 58.0023 6.66343 57.8861L12.8135 54.3315C13.2034 54.099 13.4575 53.6934 13.4575 53.2447V45.6965C13.4575 45.2461 13.6929 44.8334 14.0813 44.6097L16.6993 43.0835C16.8885 42.9728 17.1037 42.915 17.3225 42.9161C17.5415 42.9148 17.7568 42.9726 17.946 43.0835L20.5629 44.6088C20.9507 44.8326 21.1861 45.2458 21.1861 45.6956V53.2435C21.1861 53.6928 21.446 54.1008 21.8301 54.3304L27.9802 57.8849C28.1737 58.0011 28.4119 58.0011 28.6034 57.8849C28.794 57.7745 28.9153 57.5661 28.9153 57.3415L28.936 41.1795C28.9373 40.959 28.8802 40.7421 28.7707 40.551C28.6612 40.36 28.5032 40.2017 28.3129 40.0924L17.9451 34.0713C17.7698 33.9678 17.5833 33.9329 17.384 33.9248H17.2599L17.2593 33.9251ZM110.426 34.0715C110.207 34.0709 109.992 34.1287 109.803 34.2389L99.4347 40.2606C99.0477 40.4858 98.8109 40.8976 98.8109 41.3475V53.3906C98.8109 53.8433 99.0644 54.2536 99.4549 54.4774L109.74 60.3765C110.119 60.5944 110.583 60.611 110.966 60.3968L117.199 56.905C117.397 56.7946 117.53 56.5883 117.531 56.3616C117.532 56.1349 117.415 55.931 117.219 55.8182L106.788 49.7965C106.593 49.6843 106.456 49.4574 106.456 49.2319V45.4661C106.456 45.2411 106.595 45.0348 106.788 44.9226L110.03 43.0408C110.223 42.9286 110.459 42.9286 110.653 43.0408L113.896 44.9226C113.991 44.9775 114.07 45.0567 114.125 45.1521C114.179 45.2476 114.208 45.3559 114.208 45.4661V48.4351C114.207 48.5452 114.236 48.6535 114.291 48.749C114.346 48.8444 114.424 48.9236 114.519 48.9785C114.714 49.0912 114.949 49.0918 115.143 48.9785L121.355 45.3411C121.741 45.1156 121.979 44.7027 121.979 44.2543V41.3483C121.979 41.128 121.921 40.9116 121.812 40.7207C121.703 40.5299 121.545 40.3714 121.356 40.2612L111.05 34.2395C110.86 34.1291 110.645 34.0714 110.426 34.0721L110.426 34.0715ZM79.4258 43.0625C79.4838 43.0623 79.541 43.0766 79.5921 43.1041L83.145 45.174C83.2414 45.2301 83.3113 45.3338 83.3113 45.4457V49.5855C83.3113 49.698 83.242 49.8014 83.145 49.8572L79.5921 51.9271C79.4954 51.9823 79.3773 51.9823 79.2802 51.9271L75.7274 49.8572C75.6307 49.8011 75.5611 49.6974 75.5611 49.5855V45.4451C75.5611 45.333 75.6309 45.2301 75.7274 45.1734L79.2802 43.1038C79.3288 43.0756 79.3715 43.0623 79.4258 43.0623V43.062V43.0625Z" fill="#404137"/>
<path d="M48.4052 34.0085C48.1863 34.0081 47.9712 34.0658 47.7815 34.1759L37.4135 40.1766C37.0259 40.4016 36.7903 40.8348 36.7903 41.2847V53.3278C36.7897 53.5482 36.847 53.7648 36.9565 53.9556C37.0659 54.1465 37.2236 54.3048 37.4135 54.4146L47.7815 60.4363C47.9708 60.5469 48.1859 60.6052 48.4048 60.6052C48.6237 60.6052 48.8388 60.5469 49.0281 60.4363L59.3962 54.4146C59.5859 54.3046 59.7435 54.1462 59.853 53.9553C59.9625 53.7644 60.0199 53.5479 60.0196 53.3275V41.2844C60.0196 40.834 59.784 40.401 59.3959 40.1764L49.0279 34.1756C48.8384 34.065 48.6231 34.0073 48.4041 34.0082L48.4052 34.0085ZM110.406 44.7555C110.365 44.7555 110.319 44.7555 110.281 44.7759L108.287 45.947C108.249 45.9678 108.218 45.998 108.196 46.0347C108.175 46.0713 108.163 46.1131 108.162 46.1559V48.456C108.162 48.5426 108.212 48.6216 108.287 48.6652L110.281 49.8151C110.315 49.8364 110.355 49.8478 110.395 49.8478C110.436 49.8478 110.475 49.8364 110.509 49.8151L112.504 48.6652C112.578 48.6225 112.629 48.5426 112.629 48.456V46.1559C112.629 46.0693 112.578 45.9903 112.504 45.9467L110.509 44.7756C110.472 44.7535 110.447 44.7553 110.405 44.7553L110.406 44.7555Z" fill="#83CD29"/>
</svg>
