<svg width="30" height="30" className="ml-2" viewBox="0 0 14 14" fill="none" xmlns="http://www.w3.org/2000/svg">
<g clip-path="url(#clip0)">
<path d="M4.57449 10.8008H9.21812V13.7265H4.57449V10.8008Z" fill="#F1C8A5"/>
<path d="M9.27082 6.83134H7.95383C7.47058 6.83134 7.07883 6.43958 7.07883 5.95633C7.07883 5.47309 7.47058 5.08133 7.95383 5.08133H9.5605C10.1051 5.08133 10.5466 5.5228 10.5466 6.06741V7.85491C10.5466 9.87086 8.91232 11.5051 6.89636 11.5051C4.8804 11.5051 3.24614 9.87086 3.24614 7.85491V5.3773L9.27082 6.83134Z" fill="#F1C8A5"/>
<path d="M6.66026 5.3773L5.55095 1.23733C5.44152 0.828889 5.68389 0.409078 6.09233 0.299621C6.50077 0.19019 6.92058 0.432567 7.03003 0.841003L8.13935 4.98098L7.56518 5.75123L6.66026 5.3773Z" fill="#F1C8A5"/>
<path d="M9.69519 5.09074L10.7277 1.23733C10.8371 0.828889 10.5948 0.409078 10.1863 0.299621C9.77788 0.19019 9.35807 0.432567 9.24861 0.841003L8.1393 4.98098L9.69519 5.09074Z" fill="#F1C8A5"/>
<path d="M5.43209 7.83689C5.0659 8.04831 4.59764 7.92286 4.38622 7.55664L3.34879 5.75978C3.13737 5.39359 3.26285 4.92533 3.62904 4.71391C3.99523 4.50248 4.46349 4.62796 4.67491 4.99415L5.71233 6.79102C5.92375 7.15723 5.79827 7.62547 5.43209 7.83689Z" fill="#F1C8A5"/>
<path d="M6.75821 7.07126C6.39202 7.28268 5.92376 7.15723 5.71234 6.79102L4.67492 4.99415C4.4635 4.62796 4.58898 4.1597 4.95516 3.94828C5.32135 3.73686 5.78961 3.86234 6.00103 4.22853L7.03846 6.02539C7.24985 6.39161 7.1244 6.85984 6.75821 7.07126Z" fill="#F1C8A5"/>
<path d="M10.2571 0.0355127C9.70369 -0.112746 9.13277 0.21683 8.98449 0.770244L8.13929 3.92453L7.29414 0.770244C7.14586 0.21683 6.575 -0.112746 6.02153 0.0355127C5.75345 0.107345 5.52937 0.279284 5.3906 0.519637C5.25183 0.760017 5.21497 1.04002 5.2868 1.3081L5.94606 3.76853C5.84505 3.69571 5.73076 3.64092 5.60686 3.60772C5.33878 3.53592 5.05878 3.57275 4.8184 3.71152C4.57802 3.85029 4.40611 4.07437 4.33427 4.34245C4.33028 4.35733 4.32676 4.37223 4.32345 4.38716C4.05526 4.30278 3.75396 4.32648 3.49186 4.4778C3.16212 4.6682 2.97616 5.01328 2.9726 5.369C2.97258 5.37184 2.97263 7.85494 2.97263 7.85494C2.97263 9.00254 3.47461 10.0667 4.30102 10.7974V13.7266C4.30102 13.8776 4.42344 14 4.57446 14C4.72548 14 4.8479 13.8776 4.8479 13.7266V11.2016C5.07997 11.3439 5.32872 11.4638 5.59248 11.5567C5.62253 11.5673 5.65318 11.5723 5.68331 11.5723C5.79608 11.5723 5.90163 11.502 5.94122 11.3896C5.99137 11.2472 5.91658 11.0911 5.77415 11.0409C4.42558 10.5659 3.51951 9.28558 3.51951 7.85494V6.60382L4.14897 7.69411C4.34119 8.02707 4.69117 8.21342 5.05058 8.21342C5.22672 8.21342 5.40517 8.16866 5.56839 8.07443C5.83086 7.92289 6.00217 7.6733 6.06296 7.39838C6.16427 7.43029 6.27022 7.44716 6.37711 7.44716C6.55326 7.44716 6.73168 7.4024 6.89489 7.30817C7.06659 7.20905 7.20312 7.06626 7.29343 6.89512C7.46111 7.01341 7.66159 7.08797 7.87843 7.10208C7.63056 7.38378 7.47975 7.75287 7.47975 8.15671C7.47975 8.30773 7.60217 8.43015 7.75319 8.43015C7.90421 8.43015 8.02663 8.30773 8.02663 8.15671C8.02663 7.57672 8.49851 7.10484 9.0785 7.10484H9.27078C9.4218 7.10484 9.54422 6.98242 9.54422 6.8314C9.54422 6.68038 9.4218 6.55797 9.27078 6.55797H7.95379C7.62208 6.55797 7.35222 6.28811 7.35222 5.9564C7.35222 5.62469 7.62208 5.35483 7.95379 5.35483H9.56046C9.95342 5.35483 10.2731 5.67451 10.2731 6.06747V7.85497C10.2731 9.28549 9.36711 10.5658 8.01865 11.0409C7.87621 11.091 7.80143 11.2472 7.8516 11.3896C7.8912 11.502 7.99675 11.5723 8.10951 11.5723C8.13964 11.5723 8.17032 11.5672 8.20038 11.5567C8.46405 11.4638 8.71274 11.3438 8.94473 11.2016V13.7266C8.94473 13.8776 9.06715 14 9.21817 14C9.36919 14 9.49161 13.8776 9.49161 13.7266V10.7974C10.318 10.0667 10.82 9.00251 10.82 7.85492V6.06742C10.82 5.53872 10.4924 5.08539 10.0297 4.8989L10.9918 1.3081C11.1401 0.754685 10.8105 0.183799 10.2571 0.0355127ZM5.52431 7.30194C5.49027 7.42892 5.40884 7.53507 5.29498 7.60081C5.05995 7.73649 4.75832 7.65569 4.62262 7.42067L3.58519 5.62379C3.51945 5.50993 3.50201 5.37728 3.53602 5.2503C3.57007 5.12331 3.6515 5.01719 3.76536 4.95143C3.84269 4.9068 3.92718 4.88558 4.01063 4.88558C4.18088 4.88558 4.34666 4.97388 4.43772 5.13157L5.47514 6.92845C5.54085 7.04231 5.55832 7.17495 5.52431 7.30194ZM6.85082 6.53565C6.8168 6.66264 6.73534 6.76876 6.62148 6.83452C6.38646 6.9702 6.08486 6.8894 5.94915 6.65438L4.91172 4.8575C4.84599 4.74364 4.82852 4.611 4.86256 4.48401C4.8966 4.35703 4.97803 4.25091 5.09189 4.18514C5.16922 4.14052 5.25371 4.1193 5.33717 4.1193C5.50738 4.1193 5.6732 4.20759 5.76425 4.36528L6.80168 6.16216C6.86739 6.27602 6.88486 6.40867 6.85082 6.53565ZM6.97132 5.36227L6.91157 5.25877L5.81508 1.16654C5.74484 0.904393 5.90097 0.633962 6.16312 0.563742C6.42529 0.493523 6.69567 0.64963 6.76591 0.911776L7.81228 4.81692C7.45596 4.86097 7.1496 5.06851 6.97132 5.36227ZM10.4636 1.16657L9.48792 4.8079H8.46881L9.51277 0.911776C9.54682 0.784791 9.62825 0.678642 9.74211 0.612907C9.85599 0.547145 9.98861 0.529727 10.1156 0.563742C10.2426 0.597786 10.3487 0.679216 10.4145 0.793076C10.4802 0.906936 10.4976 1.03958 10.4636 1.16657Z" fill="black"/>
<path d="M6.89644 11.2317C6.82453 11.2317 6.75398 11.2609 6.70312 11.3118C6.65226 11.3627 6.623 11.4332 6.623 11.5051C6.623 11.577 6.65226 11.6476 6.70312 11.6984C6.75398 11.7493 6.82453 11.7786 6.89644 11.7786C6.96835 11.7786 7.0389 11.7493 7.08976 11.6984C7.14062 11.6476 7.16988 11.577 7.16988 11.5051C7.16988 11.4332 7.14062 11.3627 7.08976 11.3118C7.0389 11.2609 6.96833 11.2317 6.89644 11.2317Z" fill="black"/>
</g>
<defs>
<clipPath id="clip0">
<rect width="14" height="14" fill="white"/>
</clipPath>
</defs>
</svg>
