<svg width="23" height="21" viewBox="0 0 23 21" fill="none" xmlns="http://www.w3.org/2000/svg">
<g clip-path="url(#clip0)">
<path d="M9.96355 5.77015C9.83229 5.57129 9.58832 5.45712 9.33357 5.47469L3.85786 5.85848C3.30348 5.89736 2.80966 6.16099 2.50294 6.58188L0.204978 9.73552C-0.0275811 10.0547 -0.0645965 10.4541 0.106015 10.804C0.276582 11.1539 0.627195 11.3976 1.04384 11.4562L5.48389 12.0802C5.51843 12.0851 5.55293 12.0875 5.58716 12.0875C5.8146 12.0874 6.02977 11.9828 6.15479 11.8053L9.95322 6.41354C10.0908 6.21818 10.0948 5.96906 9.96355 5.77015Z" fill="#E45A6E"/>
<path d="M16.7321 11.9117C16.5129 11.7926 16.2383 11.7962 16.0231 11.921L10.0807 15.3675C9.85573 15.4981 9.73691 15.7368 9.77775 15.9763L10.4654 20.005C10.53 20.383 10.7987 20.7011 11.1843 20.8559C11.3447 20.9203 11.5145 20.952 11.6835 20.952C11.9207 20.952 12.1564 20.8893 12.3619 20.7661L15.8376 18.681C16.3014 18.4028 16.592 17.9547 16.6348 17.4517L17.0578 12.4833C17.0775 12.2522 16.9514 12.0308 16.7321 11.9117Z" fill="#D82E44"/>
<path d="M8.66405 16.8873C8.93223 17.1306 9.3133 17.2445 9.68736 17.1877C15.1728 16.3555 19.5135 12.2345 21.1661 9.3356C23.0011 6.11666 23.069 2.71503 22.9731 1.11971C22.9403 0.573042 22.46 0.137283 21.8575 0.107447C20.0993 0.0204659 16.3503 0.082135 12.8027 1.74712C9.60776 3.24654 5.06601 7.18508 4.14881 12.1623C4.08627 12.5017 4.2117 12.8475 4.47988 13.0908L8.66405 16.8873Z" fill="#F1F1FB"/>
<path d="M22.6289 0.420578L6.57192 14.9898L8.66401 16.8881C8.93219 17.1314 9.31326 17.2452 9.68732 17.1885C15.1728 16.3563 19.5135 12.2353 21.166 9.33643C23.001 6.11749 23.069 2.71587 22.9731 1.12054C22.9566 0.847207 22.8283 0.601591 22.6289 0.420578Z" fill="#D7D6FB"/>
<path d="M15.7554 9.71201C14.8925 9.71205 14.0299 9.4141 13.3731 8.81807C12.7367 8.24071 12.3862 7.47301 12.3862 6.65647C12.3862 5.83994 12.7367 5.07223 13.3731 4.49488C14.6866 3.30299 16.824 3.30295 18.1377 4.49488C18.774 5.07223 19.1244 5.83994 19.1244 6.65647C19.1244 7.47301 18.774 8.24071 18.1377 8.81807C17.4809 9.41397 16.618 9.71193 15.7554 9.71201ZM13.8495 4.92721H13.8499H13.8495Z" fill="#466288"/>
<path d="M4.14877 12.1623C4.08624 12.5017 4.21166 12.8475 4.47985 13.0908L8.66402 16.8873C8.9322 17.1306 9.31327 17.2444 9.68733 17.1877C10.8809 17.0066 12.0202 16.6697 13.0896 16.2237L5.21126 9.07534C4.71968 10.0455 4.34836 11.0793 4.14877 12.1623Z" fill="#466288"/>
<path d="M0.687478 17.2811C0.859888 17.2811 1.03239 17.2213 1.16392 17.102L3.36388 15.1058C3.62703 14.8671 3.62703 14.48 3.36388 14.2412C3.10077 14.0024 2.67415 14.0024 2.41095 14.2412L0.211036 16.2373C-0.0521162 16.4761 -0.0521162 16.8632 0.211036 17.102C0.342612 17.2214 0.515023 17.2811 0.687478 17.2811Z" fill="#FDB43A"/>
<path d="M5.38003 16.0706C5.11692 15.8318 4.69025 15.8318 4.4271 16.0706L0.197524 19.9083C-0.0656279 20.147 -0.0656279 20.5341 0.197524 20.7729C0.329101 20.8923 0.501556 20.952 0.674011 20.952C0.846466 20.952 1.01892 20.8922 1.15045 20.7729L5.38003 16.9352C5.64318 16.6964 5.64318 16.3093 5.38003 16.0706Z" fill="#FDB43A"/>
<path d="M7.39614 17.8999C7.13303 17.6612 6.70636 17.6612 6.44321 17.8999L4.24329 19.896C3.98014 20.1347 3.98014 20.5218 4.24329 20.7606C4.37487 20.88 4.54732 20.9397 4.71973 20.9397C4.89215 20.9397 5.06464 20.88 5.19618 20.7606L7.39614 18.7645C7.65929 18.5258 7.65929 18.1386 7.39614 17.8999Z" fill="#F57A21"/>
<path d="M0.197517 20.7729C0.329094 20.8923 0.501549 20.952 0.674004 20.952C0.846459 20.952 1.01891 20.8922 1.15045 20.7729L5.38002 16.9352C5.64317 16.6964 5.64317 16.3093 5.38002 16.0705L0.197517 20.7729Z" fill="#F57A21"/>
<path d="M6.57192 14.989L8.66401 16.8873C8.93219 17.1306 9.31326 17.2444 9.68732 17.1877C10.8809 17.0066 12.0202 16.6697 13.0895 16.2237L9.15042 12.6495L6.57192 14.989Z" fill="#354A67"/>
<path d="M13.373 8.8181C14.0299 9.41413 14.8925 9.71213 15.7554 9.71205C16.618 9.71197 17.481 9.41397 18.1377 8.8181C18.774 8.2407 19.1245 7.47303 19.1245 6.65649C19.1245 5.83995 18.774 5.07224 18.1377 4.49487L13.373 8.8181Z" fill="#354A67"/>
<path d="M15.7553 4.82319C15.2377 4.82319 14.72 5.00196 14.326 5.35955C13.9442 5.70596 13.7339 6.16655 13.7339 6.65648C13.7339 7.14641 13.9442 7.607 14.326 7.95342C15.1141 8.66855 16.3966 8.66859 17.1848 7.95342C17.5666 7.60696 17.7769 7.14637 17.7769 6.65644C17.7769 6.16651 17.5666 5.70592 17.1848 5.35951C16.7907 5.00196 16.2731 4.82319 15.7553 4.82319Z" fill="#4BBEFD"/>
<path d="M17.1847 5.35954L14.326 7.95345C15.1141 8.66859 16.3966 8.66863 17.1847 7.95345C17.5665 7.607 17.7768 7.14641 17.7768 6.65648C17.7768 6.16655 17.5666 5.70596 17.1847 5.35954Z" fill="#0590FB"/>
</g>
<defs>
<clipPath id="clip0">
<rect width="23" height="20.869" fill="white" transform="translate(0 0.0830688)"/>
</clipPath>
</defs>
</svg>
