<svg width="21" height="12" viewBox="0 0 21 12" fill="none" xmlns="http://www.w3.org/2000/svg">
<path fill-rule="evenodd" clip-rule="evenodd" d="M5.25015 4.00019C5.94969 1.3334 7.70034 0 10.5003 0C14.7011 0 15.2252 2.99871 17.325 3.49945C18.7253 3.83309 19.9501 3.33349 21 2.00009C20.3005 4.66632 18.5498 5.99971 15.7504 5.99971C11.5496 5.99971 11.0256 3.001 8.92574 2.50026C7.52546 2.16663 6.30066 2.66622 5.25075 3.99962L5.25015 4.00019ZM0 9.99991C0.700741 7.33311 2.44959 5.99971 5.25015 5.99971C9.45099 5.99971 9.97504 8.99843 12.0749 9.49917C13.4751 9.8328 14.6999 9.33321 15.7498 7.99981C15.0503 10.6666 13.2997 12 10.4997 12C6.29886 12 5.7748 9.00129 3.67499 8.50055C2.2747 8.16691 1.04991 8.66651 0 9.99991Z" fill="url(#paint0_linear)"/>
<defs>
<linearGradient id="paint0_linear" x1="-1.0966e-07" y1="-10.6643" x2="19.5237" y2="23.5072" gradientUnits="userSpaceOnUse">
<stop stop-color="#2383AE"/>
<stop offset="1" stop-color="#6DD7B9"/>
</linearGradient>
</defs>
</svg>
