<svg width="59" height="37" className="tailwind-icon" viewBox="0 0 59 37" fill="none" xmlns="http://www.w3.org/2000/svg">
<path fill-rule="evenodd" clip-rule="evenodd" d="M15.083 12.6184C17.0327 4.77409 21.912 0.851929 29.7158 0.851929C41.424 0.851929 42.8846 9.67259 48.7371 11.1455C52.6398 12.1269 56.0535 10.6573 58.9797 6.73518C57.03 14.5778 52.1507 18.5 44.3486 18.5C32.6403 18.5 31.1797 9.67933 25.3273 8.20641C21.4245 7.22503 18.0109 8.69458 15.0847 12.6167L15.083 12.6184ZM0.450195 30.2665C2.40325 22.4222 7.2775 18.5 15.083 18.5C26.7912 18.5 28.2518 27.3207 34.1043 28.7936C38.007 29.775 41.4207 28.3054 44.3469 24.3832C42.3972 32.2276 37.5179 36.1497 29.7141 36.1497C18.0059 36.1497 16.5453 27.3291 10.6928 25.8562C6.79007 24.8748 3.37642 26.3443 0.450195 30.2665Z" fill="url(#paint0_linear)"/>
<defs>
<linearGradient id="paint0_linear" x1="0.450195" y1="-30.517" x2="59.4079" y2="67.2588" gradientUnits="userSpaceOnUse">
<stop stop-color="#2383AE"/>
<stop offset="1" stop-color="#6DD7B9"/>
</linearGradient>
</defs>
</svg>
