<svg width="176" height="88" className="yii-icon" viewBox="0 0 176 88" fill="none" xmlns="http://www.w3.org/2000/svg">
<path d="M88.9711 36.7841V36.1357C88.9711 35.9758 88.8896 35.8115 88.564 35.8115C88.2397 35.73 87.5099 35.73 86.8629 35.73C85.0803 35.73 83.9448 36.3785 83.9448 38.4053V49.8331C83.9448 50.076 84.1048 50.2402 84.3519 50.2402H85.2432C85.486 50.2402 85.6503 50.0803 85.6503 49.8331V40.9976H88.6497C88.8925 40.9976 88.974 40.8377 88.974 40.6734V40.0249C88.974 39.7821 88.814 39.7007 88.6497 39.7007H85.5703V38.4038C85.5703 37.2697 85.8131 37.1069 86.8672 37.1069H88.5683C88.8111 37.0255 88.9754 36.947 88.9754 36.7827L88.9711 36.7841Z" fill="#666666"/>
<path d="M95.0514 40.6748V39.7836C95.0514 39.5408 94.8914 39.4594 94.6443 39.4594C93.0231 39.4594 91.7262 39.5408 90.6721 40.0409C90.4293 40.1223 90.3479 40.2837 90.3479 40.448V49.6703C90.3479 49.9131 90.5078 50.0774 90.6721 50.0774H91.6463C91.8891 50.0774 91.9705 49.9175 91.9705 49.6703V41.159C92.7004 40.9991 93.3488 40.9991 94.6457 40.9991C95.0528 40.9991 95.0528 40.9176 95.0528 40.6748H95.0514Z" fill="#666666"/>
<path d="M103.4 49.4289V40.432C103.4 40.1892 103.319 40.1078 102.993 40.0249C101.822 39.7609 100.626 39.6249 99.4264 39.6193C96.5912 39.6193 95.21 41.4832 95.21 44.3198V45.6167C95.21 48.4519 96.5069 50.3173 99.4264 50.3173C100.626 50.3071 101.821 50.1711 102.993 49.9117C103.317 49.7663 103.4 49.6688 103.4 49.426V49.4289ZM101.699 48.6991C100.947 48.8021 100.188 48.856 99.4293 48.8605C97.5653 48.8605 96.9169 47.5636 96.9169 45.5368V44.2399C96.9169 42.2131 97.4984 40.9162 99.4293 40.9162C100.188 40.9207 100.947 40.9746 101.699 41.0776V48.6991ZM117.26 49.7532V42.8615C117.26 40.9162 116.126 39.5379 113.858 39.5379H113.451C112.317 39.5379 111.506 39.6833 110.939 40.1863C110.357 39.6047 109.56 39.5379 108.426 39.5379H108.019C105.751 39.5379 104.617 40.9162 104.617 42.8615V49.7532C104.617 49.996 104.762 50.1603 104.941 50.1603H105.915C106.158 50.1603 106.239 50.0149 106.239 49.7532V42.8615C106.239 41.2404 106.969 40.9976 107.941 40.9976H108.348C109.563 40.9976 109.969 41.2404 109.969 42.2945V49.7532C109.969 49.996 110.114 50.1603 110.293 50.1603H111.267C111.51 50.1603 111.591 50.0149 111.591 49.7532V42.2945C111.591 41.2404 111.998 40.9976 113.213 40.9976H113.62C114.674 40.9976 115.321 41.2404 115.321 42.8615V49.7532C115.321 49.996 115.466 50.1603 115.645 50.1603H116.619C117.201 50.1603 117.268 50.0149 117.268 49.7532H117.26ZM126.661 45.0512V44C126.661 41.3247 125.203 39.5422 122.445 39.5422C119.687 39.5422 118.133 41.2433 118.133 44V45.7011C118.133 49.2676 120.241 50.3217 122.494 50.3217C123.791 50.3217 124.845 50.2402 125.897 49.9974C126.221 49.916 126.304 49.852 126.304 49.5903V48.9433C126.304 48.7979 126.158 48.7005 125.979 48.7005H125.898C125.007 48.8459 123.63 48.9433 122.496 48.9433C120.713 48.9433 119.821 48.1335 119.821 45.8639V45.4568H126.224C126.467 45.4568 126.631 45.3114 126.631 45.0497L126.661 45.0512ZM124.96 44.1599H119.854V44C119.854 41.9732 120.745 41.0005 122.448 41.0005C124.15 41.0005 124.96 41.8104 124.96 44V44.1599ZM140.605 46.0238V40.0264C140.605 39.7836 140.459 39.6193 140.197 39.6193H139.306C139.063 39.6193 138.899 39.7647 138.899 40.0264V46.0238C138.899 48.132 138.089 48.859 136.548 48.859C136.062 48.859 135.574 48.7776 135.007 48.6162V40.038C135.007 39.7952 134.862 39.6309 134.6 39.6309H133.626C133.383 39.6309 133.219 39.7763 133.219 40.038V48.6162C132.637 48.7616 132.164 48.859 131.677 48.859C130.056 48.859 129.326 48.1291 129.326 46.0238V40.0264C129.326 39.7836 129.181 39.6193 128.919 39.6193H128.028C127.785 39.6193 127.621 39.7647 127.621 40.0264V46.0238C127.621 49.426 129.485 50.3202 131.512 50.3202C132.486 50.3202 133.294 50.1748 134.024 49.8346C134.82 50.1664 135.675 50.3316 136.536 50.3202C138.725 50.3202 140.589 49.4289 140.589 46.0238H140.605ZM150.41 45.6167V44.1454C150.41 41.3102 148.952 39.5248 146.113 39.5248C143.275 39.5248 141.832 41.4047 141.832 44.1454V45.6037C141.832 48.4388 143.29 50.2242 146.128 50.2242C148.963 50.3057 150.424 48.4417 150.424 45.6037L150.41 45.6167ZM148.709 45.6167C148.709 47.5621 147.899 48.7776 146.115 48.7776C144.331 48.7776 143.521 47.5621 143.521 45.6167V44.1454C143.521 42.2 144.331 40.9845 146.115 40.9845C147.899 40.9845 148.709 42.2 148.709 44.1454V45.6167Z" fill="#666666"/>
<path d="M156.409 40.6748V39.7836C156.409 39.5408 156.249 39.4594 156.001 39.4594C154.38 39.4594 153.083 39.5408 152.029 40.0409C151.786 40.1223 151.705 40.2837 151.705 40.448V49.6703C151.705 49.9131 151.865 50.0774 152.029 50.0774H153.003C153.246 50.0774 153.328 49.9175 153.328 49.6703V41.159C154.058 40.9991 154.706 40.9991 156.003 40.9991C156.41 40.9991 156.41 40.9176 156.41 40.6748H156.409Z" fill="#666666"/>
<path d="M165 49.9146C165 49.8331 165 49.7546 164.918 49.7546L160.622 44.6484L164.838 40.1093C164.92 40.0278 164.92 39.9493 164.92 39.8665C164.92 39.7836 164.838 39.6237 164.596 39.6237H163.38C163.22 39.6237 163.137 39.6237 162.973 39.7836L159.164 44.0799V36.2171C159.164 35.9743 159.004 35.81 158.757 35.81H157.865C157.623 35.81 157.458 35.9699 157.458 36.2171V49.8346C157.458 50.0774 157.618 50.2417 157.865 50.2417H158.757C158.999 50.2417 159.164 50.0818 159.164 49.8346V45.3085L162.973 50.0091C163.133 50.169 163.216 50.2519 163.38 50.2519H164.758C164.918 50.1704 165.001 50.0919 165.001 49.9276L165 49.9146Z" fill="#666666"/>
<path d="M81.1098 49.6703V37.594C81.1098 37.3511 80.9499 37.1868 80.7027 37.1868H78.9202C78.6774 37.1868 78.5131 37.3468 78.5131 37.594V49.6703C78.5131 49.9131 78.673 50.0774 78.9202 50.0774H80.7027C80.9455 49.996 81.1098 49.8346 81.1098 49.6703ZM71.8701 49.9945V37.2683C70.896 37.2683 69.3577 37.9167 69.3577 39.295V47.9677C68.7761 48.0492 67.9794 48.1277 67.4938 48.1277C65.8726 48.1277 65.467 46.9936 65.467 45.4524V39.2165C65.3856 37.6754 63.6845 37.2712 62.9546 37.2712V45.3768C62.9546 48.2949 64.4129 50.1603 67.4938 50.1603C67.9794 50.1603 68.9521 50.0003 69.3577 49.9174V50.0774C69.7648 52.5898 66.6825 51.6185 65.0613 51.4557C63.8459 51.4557 63.0346 52.4298 62.7932 53.5639C63.5231 53.8067 65.7927 54.0495 67.4138 54.2124C70.3318 54.2938 71.8715 52.6712 71.8715 49.996L71.8701 49.9945ZM76.4907 49.6703V37.594C76.4907 37.3511 76.3307 37.1868 76.0836 37.1868H74.3011C74.0583 37.1868 73.894 37.3468 73.894 37.594V49.6703C73.894 49.9131 74.0539 50.0774 74.3011 50.0774H76.0836C76.3264 49.996 76.4907 49.8346 76.4907 49.6703ZM75.1938 33.7832C75.5377 33.7832 75.8676 33.9198 76.1108 34.1631C76.354 34.4063 76.4907 34.7361 76.4907 35.0801C76.4907 35.4241 76.354 35.7539 76.1108 35.9972C75.8676 36.2404 75.5377 36.377 75.1938 36.377C75.0228 36.3794 74.8531 36.3474 74.6947 36.2831C74.5363 36.2187 74.3924 36.1233 74.2715 36.0024C74.1506 35.8815 74.0552 35.7376 73.9908 35.5792C73.9265 35.4208 73.8945 35.2511 73.8969 35.0801C73.9071 34.7394 74.047 34.4154 74.288 34.1744C74.5291 33.9333 74.853 33.7934 75.1938 33.7832ZM79.8943 33.7832C80.2383 33.7832 80.5682 33.9198 80.8114 34.1631C81.0546 34.4063 81.1912 34.7361 81.1912 35.0801C81.1912 35.4241 81.0546 35.7539 80.8114 35.9972C80.5682 36.2404 80.2383 36.377 79.8943 36.377C79.7234 36.3794 79.5537 36.3474 79.3953 36.2831C79.2369 36.2187 79.0929 36.1233 78.972 36.0024C78.8511 35.8815 78.7557 35.7376 78.6914 35.5792C78.627 35.4208 78.5951 35.2511 78.5974 35.0801C78.6076 34.7394 78.7476 34.4154 78.9886 34.1744C79.2296 33.9333 79.5536 33.7934 79.8943 33.7832Z" fill="#BFD1DA"/>
<path fill-rule="evenodd" clip-rule="evenodd" d="M38.017 33.949C35.9135 27.8778 42.0617 21.3693 47.1194 21.1751C50.1505 22.7554 52.7526 26.9078 52.6218 32.5417C52.2247 39.4896 47.3135 45.4648 41.9684 50.9761C41.6701 44.2557 40.2437 39.9719 38.0163 33.949" fill="#7CC734"/>
<path fill-rule="evenodd" clip-rule="evenodd" d="M26.0932 66.824C25.2472 60.0465 27.9984 54.2661 30.7292 50.7417C32.0268 49.0865 33.0247 47.5764 33.7835 46.1847C35.2181 46.806 39.0741 48.829 41.1987 52.1136C40.8901 56.8783 37.3692 65.5496 26.0932 66.824Z" fill="#3E7FCA"/>
<path fill-rule="evenodd" clip-rule="evenodd" d="M21.8319 41.0856C12.8576 38.5755 10.6438 30.691 11.0443 25.3895C19.7591 21.857 29.1381 25.4753 34.5533 33.0172C38.3501 38.303 40.7274 45.0806 41.2097 50.9944C38.6049 47.5566 35.3149 45.5656 31.1243 44.0057C28.258 42.9397 25.6103 42.2333 21.8319 41.0862" fill="#EB6E2E"/>
</svg>
