<svg width="62" height="73" className="codeigniter-icon" viewBox="0 0 62 73" fill="none" xmlns="http://www.w3.org/2000/svg">
<g clip-path="url(#clip0)">
<path d="M3.17362 68.9826C1.91328 68.9826 1.54685 68.2551 1.54685 67.1651C1.54685 66.8018 1.59287 66.3919 1.64954 65.9602C1.92563 64.0752 2.59964 62.9967 4.22641 62.9967C5.32667 62.9967 5.86312 63.4845 5.86312 64.3705V64.8025H6.95466C6.96677 64.8025 6.96677 64.4048 6.96677 64.3143C6.96677 63.0197 6.17602 61.7918 4.22811 61.7918C1.58124 61.7918 0.492852 63.2173 0.0917891 66.0118C0.0343906 66.3869 0 66.737 0 67.1105C0 68.7577 0.653664 70.2559 2.99077 70.2559C4.76649 70.2559 5.82122 69.3975 6.43952 68.3411L5.39666 67.6448C4.72096 68.7015 3.98713 68.9826 3.17362 68.9826ZM10.3351 63.7801C8.215 63.7801 7.29905 64.8586 6.98977 67.0051C6.95346 67.2536 6.93404 67.5042 6.93165 67.7552C6.93165 69.1406 7.58483 70.2432 9.3947 70.2432C11.5148 70.2432 12.4431 69.1183 12.7524 67.0051C12.7868 66.7329 12.8098 66.4829 12.8098 66.2332C12.8103 64.825 12.1346 63.7801 10.3351 63.7801ZM11.2174 67.0059C10.988 68.5624 10.4959 69.0395 9.56713 69.0395C8.82289 69.0395 8.45646 68.7327 8.45646 67.8126C8.45646 67.5852 8.47971 67.313 8.52524 67.0059C8.75459 65.4613 9.21281 64.9842 10.1523 64.9842C10.9086 64.9842 11.2862 65.2908 11.2862 66.2222C11.2862 66.4493 11.2629 66.7108 11.2174 67.0059ZM18.1391 61.9047L17.7843 63.9899C17.7615 64.1712 17.7732 64.111 17.8424 64.2814C17.5102 64.0317 16.9139 63.8665 16.5128 63.8665C14.6107 63.8665 13.5455 64.7201 13.2021 67.1055C13.162 67.3573 13.1428 67.612 13.1447 67.8669C13.1447 69.6054 14.1757 70.2535 15.5618 70.2535C16.1469 70.2535 16.7194 70.2655 17.1658 69.8912L17.2798 70.5978H18.3801L19.6632 61.9047H18.1391ZM17.0507 68.7096C16.5356 69.0155 16.0318 69.0847 15.7226 69.0847C14.8861 69.0847 14.6569 68.6527 14.6569 67.9603C14.6569 67.6988 14.6913 67.3929 14.7376 67.0625C15.0006 65.2567 15.5852 64.9381 16.3416 64.9381C16.8337 64.9381 17.2115 65.0181 17.5676 65.2116L17.0507 68.7096ZM23.0093 63.7801C20.9119 63.7801 19.9274 64.7676 19.5947 67.0051C19.5598 67.2781 19.5368 67.5396 19.5368 67.7893C19.5368 69.3228 20.3278 70.2432 22.0686 70.2432C23.4207 70.2432 24.4299 69.6861 24.9681 68.6638L23.8107 68.198C23.4789 68.6974 23.032 69.0383 22.2413 69.0383C21.3936 69.0383 21.0497 68.8121 21.0497 68.0623C21.0497 67.9144 21.0614 67.6995 21.0844 67.6995H25.22C25.2781 67.1199 25.3459 66.7103 25.3459 66.3706C25.3459 65.2354 24.9109 63.7799 23.0093 63.7799V63.7801ZM23.7995 66.541H21.2788C21.5314 65.9614 21.9545 65.0644 22.8257 65.0644C23.5014 65.0644 23.8342 65.456 23.8342 66.1261C23.8334 66.2397 23.823 66.541 23.7995 66.541ZM29.7552 63.6432L29.8925 62.4843H26.661L26.5241 63.6432H27.3718L26.4558 69.4386H25.607L25.4704 70.5978H28.7012L28.8392 69.4386H27.9908L28.907 63.6432H29.7552ZM36.3209 65.3818L36.7338 64.2228H35.6224L34.821 64.3868C34.3739 64.1035 33.7665 63.8908 33.1942 63.8908C31.5551 63.8908 30.1579 64.6754 30.1579 66.4592C30.1579 66.9595 30.341 67.3634 30.5583 67.6364C30.2153 67.8176 29.9172 68.1214 29.9172 68.531C29.9172 68.7125 29.9855 68.8983 30.1235 69.0683C29.4355 69.478 29.0129 70.1567 29.0129 70.9512C29.0129 72.4855 30.628 72.8127 31.8653 72.8127C33.4233 72.8127 35.2799 72.4598 35.2799 70.4945C35.2799 69.8247 34.8561 69.3012 33.6302 69.0741L31.419 68.6645C31.1671 68.6186 31.1097 68.5392 31.1097 68.4256C31.1097 68.2551 31.2139 68.1648 31.3848 68.1648L31.534 68.1874C31.8319 68.2554 32.1758 68.2899 32.5306 68.2899C34.1237 68.2899 35.5442 67.608 35.5442 65.8361C35.5442 65.5859 35.4986 65.4166 35.3841 65.1436C35.5786 65.2349 35.8312 65.3825 35.9334 65.3825H36.3209V65.3818ZM33.1707 70.0837C33.6057 70.1637 33.7544 70.3224 33.7544 70.6064C33.7544 71.5267 32.7576 71.6403 32.0361 71.6403C30.9361 71.6403 30.5239 71.3796 30.5239 70.7995C30.5239 70.2881 30.6723 70.0501 31.0167 69.6861L33.1707 70.0837ZM32.7002 67.1084C32.0356 67.1084 31.6689 66.8702 31.6689 66.3017C31.6689 65.4613 32.1618 64.9727 33.0211 64.9727C33.7086 64.9727 34.0411 65.2567 34.0411 65.8126C34.0411 66.6534 33.5594 67.1084 32.7002 67.1084ZM40.3913 63.7801C39.7495 63.7801 39.1772 64.0922 38.4664 64.6483L38.3635 64.2228H37.1026L36.2206 70.5975H37.7444L38.4092 65.7633C38.8563 65.4908 39.4058 65.0951 39.8757 65.0951C40.4482 65.0951 40.655 65.3691 40.655 65.8913C40.655 66.0164 40.6429 66.3869 40.6199 66.523L40.0593 70.5975H41.5834L42.144 66.4899C42.1673 66.2978 42.19 65.9811 42.19 65.7998C42.1908 64.7194 41.6744 63.7801 40.3913 63.7801ZM45.0849 69.0006L45.0965 68.8446L45.7606 64.2228H43.2283L43.0687 65.3818H44.1794C44.0876 65.3818 44.0304 65.4834 44.0193 65.5749L43.5608 68.653C43.538 68.8011 43.5269 69.1094 43.5269 69.2335C43.5269 70.0285 43.9619 70.5978 44.8551 70.5978H45.6344L45.8064 69.4386H45.314C45.1416 69.4386 45.0849 69.1368 45.0849 69.0006ZM46.0699 61.9047H44.5804C44.4886 61.9047 44.4886 61.5702 44.4775 61.6838L44.2707 63.317C44.2588 63.4197 44.2588 63.6435 44.3506 63.6435H45.8408C45.9326 63.6435 45.9326 63.2464 45.9437 63.1431L46.1505 61.8826C46.1622 61.769 46.1621 61.9047 46.0699 61.9047ZM49.1774 69.0393C48.7998 69.0393 48.6162 68.8801 48.6162 68.5399L48.6279 68.5166L49.1091 65.3818H50.8504L51.3772 64.2228H49.2692L49.624 61.6723L48.0207 62.1805L47.7337 64.2228H46.8059L46.6458 65.3818H47.7226C47.6196 65.9614 47.5162 65.5854 47.5051 65.6995L47.0924 68.4482C47.0696 68.5735 47.0696 68.6642 47.0696 68.7773C47.0696 69.8566 47.8715 70.2604 48.8349 70.2604C49.7281 70.2604 50.4501 70.0019 51.012 69.5353L50.3011 68.6686C49.9451 68.8839 49.7049 69.0393 49.1774 69.0393ZM54.7688 63.7801C52.6721 63.7801 51.6869 64.7676 51.3544 67.0051C51.32 67.2781 51.297 67.5396 51.297 67.7893C51.297 69.3228 52.0875 70.2432 53.8288 70.2432C55.181 70.2432 56.1902 69.6861 56.7278 68.6638L55.5709 68.198C55.2391 68.6974 54.7918 69.0383 54.0008 69.0383C53.1536 69.0383 52.8092 68.8121 52.8092 68.0623C52.8092 67.9144 52.8216 67.6995 52.8446 67.6995H56.9804C57.0376 67.1199 57.1064 66.7103 57.1064 66.3706C57.1064 65.2354 56.6711 63.7799 54.7688 63.7799V63.7801ZM55.5597 66.541H53.0391C53.2909 65.9614 53.7143 65.0644 54.5859 65.0644C55.2616 65.0644 55.5944 65.456 55.5944 66.1261C55.5937 66.2397 55.5825 66.541 55.5597 66.541ZM61.3231 63.7799C60.7731 63.7799 60.2575 64.0925 59.7416 64.5799L59.6501 64.2228H58.3902L57.5077 70.5975H59.0431L59.7188 65.6611C60.1201 65.4231 60.5784 65.2197 61.0138 65.2197C61.2892 65.2197 61.5522 65.1763 61.8041 65.2101L62 63.8932C61.7697 63.8478 61.5406 63.7801 61.3231 63.7801V63.7799ZM22.412 57.3387C18.9439 55.8524 15.6986 52.0751 15.6908 48.2102C15.6814 43.9965 18.375 40.4189 21.7252 38.0679C21.3224 39.5764 21.1028 40.9563 22.1006 42.3057C23.0282 43.5602 24.6528 44.1698 26.1868 43.8389C29.7711 43.061 29.9356 39.1546 27.8106 36.8786C25.7097 34.6248 23.6772 32.079 24.4769 28.8105C24.8773 27.1721 25.892 25.6373 27.1776 24.5403C26.1894 27.1147 28.9974 29.6535 30.8474 30.9181C34.0566 33.1122 37.5778 34.7703 40.5286 37.3423C43.6325 40.0453 45.9246 43.7002 45.4617 47.9392C44.9602 52.5337 41.2775 55.7293 37.1467 57.3425C45.8756 55.4325 54.8949 48.7161 55.0797 39.1188C55.2328 31.223 49.7693 25.1466 43.0014 21.6677L42.6478 21.4764C42.8335 21.9232 42.8943 22.3033 42.8873 22.6435C42.9478 22.3926 42.989 22.1347 43.0006 21.8687C42.999 22.1847 42.9573 22.4993 42.8766 22.8051L42.8873 22.6435C42.7868 23.0627 42.6175 23.4627 42.3862 23.8274L42.4855 23.7216C41.1353 25.9418 37.48 26.4239 35.6742 24.1249C32.7714 20.4269 35.735 16.4398 36.1496 12.5237C36.6686 7.61578 33.564 2.85121 29.7147 0C31.8348 3.40008 29.0417 7.89838 26.807 10.4132C24.6402 12.851 22.0049 14.8863 19.6128 17.1012C17.0432 19.4802 14.5729 21.9861 12.4608 24.7782C8.23656 30.3668 5.65048 37.3956 7.55092 44.3676C9.45016 51.3349 15.5378 55.7701 22.4123 57.3384L22.412 57.3387Z" fill="#EE4323"/>
</g>
<defs>
<clipPath id="clip0">
<rect width="62" height="73" fill="white"/>
</clipPath>
</defs>
</svg>
