<svg width="23" height="23" viewBox="0 0 23 23" fill="none" xmlns="http://www.w3.org/2000/svg">
<g clip-path="url(#clip0)">
<path d="M22.2942 13.6862L15.5497 20.745C14.3365 21.9583 12.6912 22.6397 10.9757 22.6397H9.70231C6.42796 22.6397 3.77313 19.9851 3.77313 16.7105C3.77313 15.1325 3.35764 13.5829 2.56888 12.2165L0.55206 8.7232C0.243293 8.18849 0.31633 7.53372 0.69445 7.08234C1.3291 6.323 2.53842 6.41491 3.04187 7.28582C5.97694 12.3697 2.57813 6.48242 5.91392 12.2605C3.61569 3.68367 3.62566 3.93521 3.70665 3.47004C3.70665 3.42341 3.76527 3.1911 3.84635 3.02894C4.50826 1.66932 6.48106 1.88241 6.86484 3.31327C6.98463 3.76048 8.86809 10.7903 8.98362 11.2215C8.98362 1.42708 8.97652 1.9223 8.99665 1.77169C9.10867 0.93226 9.84101 0.36261 10.5176 0.36261C11.4544 0.316884 12.2177 1.06149 12.2177 1.97741V11.5C14.9212 2.06994 14.6969 2.73118 14.8966 2.42659C15.3172 1.7601 16.2686 1.48039 17.0271 1.90554C17.6285 2.20748 18.0087 2.98277 17.8064 3.7391L15.4518 12.526V14.4363C15.4518 15.0768 16.2258 15.3976 16.6785 14.9448C18.8524 12.4281 18.6582 12.6466 18.7623 12.5493C19.8872 11.5068 21.4168 11.3535 21.9227 11.6065C22.7222 11.9502 22.9648 13.0156 22.2942 13.6862Z" fill="#F9CFAC"/>
<path d="M22.5965 12.3081L14.8876 20.3093C13.9187 21.1614 12.7199 21.7027 11.4469 21.8671C7.43455 22.3887 4.4918 19.4161 4.4918 15.9918C4.4918 14.4138 4.0763 12.8642 3.28754 11.4978C0.56686 6.87066 0.724792 7.14192 0.694427 7.08232C1.04807 6.65923 1.62374 6.46631 2.17852 6.61876C2.49011 6.70429 2.66862 6.84654 2.87115 7.04908C4.39765 9.60586 5.91839 12.2605 5.9139 12.2605C6.29916 12.2605 6.57959 11.895 6.47987 11.5229C4.33413 3.51515 4.43529 4.01284 4.45002 3.6672C4.46237 3.16151 4.75794 2.62299 5.24013 2.34167C5.44244 2.22286 5.66685 2.16083 5.68527 2.16065C6.24045 2.29585 6.70625 2.72257 6.86481 3.31325C7.07602 4.1016 8.75528 10.3693 8.9836 11.2215C8.9836 1.07938 8.97277 1.90336 9.00875 1.69126C9.05237 1.44847 9.15442 1.21998 9.27152 1.05611C9.41059 0.85322 9.59758 0.705305 9.60212 0.705305C10.6984 -0.140187 12.2177 0.661555 12.2177 1.97738V11.5C14.8404 2.35164 14.6998 2.83289 14.7241 2.76974C15.1071 1.67845 16.5691 1.29638 17.4385 2.23027C17.4938 2.29284 17.6866 1.46505 14.7331 12.6607V14.571C14.7331 15.1207 15.3465 15.6513 16.055 15.3755C16.531 15.1901 16.7978 14.8066 17.1627 14.3842C18.8046 12.4838 18.6084 12.7073 18.7224 12.5873C19.2005 12.1249 19.824 11.7654 20.5388 11.6002C20.8398 11.5313 21.3157 11.4703 21.6069 11.5148C22.0023 11.5757 22.3282 11.8147 22.5129 12.1347C22.564 12.2202 22.5943 12.3036 22.5965 12.3081Z" fill="#FFE4CC"/>
<path d="M4.89718 19.5286C4.79697 19.3573 4.57682 19.2997 4.40551 19.4C4.23423 19.5003 4.17669 19.7204 4.27695 19.8917C4.37591 20.0605 4.45303 20.2173 4.67726 20.2173C4.95643 20.2173 5.13403 19.9058 4.97965 19.6643C4.9553 19.6263 4.92912 19.5831 4.89718 19.5286Z" fill="black"/>
<path d="M21.3684 11.1408C20.2378 11.1408 19.1749 11.581 18.3756 12.3802C18.3588 12.3971 17.7675 13.0984 16.4151 14.6998C16.1896 14.9124 15.8111 14.7538 15.8111 14.4365V12.5734L18.1535 3.83209C18.4878 2.58341 17.5455 1.34417 16.2437 1.34417C15.3522 1.34417 14.5683 1.94522 14.3361 2.80612L12.577 8.9425V1.97751C12.577 0.887713 11.6904 0.00112152 10.6006 0.00112152C9.51888 0.00112152 8.62425 0.875181 8.62425 1.97751V8.49184L7.21189 3.22031C6.92913 2.16599 5.84666 1.54001 4.79162 1.82309C3.74382 2.10311 3.10859 3.18428 3.39368 4.24367L4.8603 9.71702L3.35299 7.10616C2.85732 6.24814 1.7562 5.9533 0.898756 6.44874C0.0555101 6.93575 -0.262914 8.03026 0.240842 8.90298L2.25766 12.3962C3.01399 13.7065 3.41376 15.1984 3.41376 16.7106C3.41376 17.3168 3.5 17.9167 3.67006 18.4935C3.72626 18.6839 3.92632 18.7928 4.11641 18.7366C4.30678 18.6804 4.41557 18.4806 4.35946 18.2902C4.20885 17.7794 4.13245 17.248 4.13245 16.7106C4.13245 15.0724 3.69935 13.4563 2.88004 12.0369L0.863226 8.54359C0.768673 8.37982 0.71868 8.19403 0.71868 8.00637C0.71868 6.89622 2.18745 6.52551 2.7306 7.46555L5.60271 12.4402C5.81144 12.8018 6.36928 12.5717 6.26098 12.1676C3.88778 3.31091 4.04441 3.96671 4.04441 3.73066C4.04441 2.77324 5.08929 2.15669 5.9316 2.6428C6.22257 2.81079 6.43068 3.08196 6.51773 3.40636L8.63651 11.3146C8.74472 11.7186 9.34298 11.6393 9.34298 11.2216V1.97751C9.34298 1.64166 9.47378 1.32571 9.71095 1.08818C10.4971 0.303195 11.8583 0.853306 11.8583 1.97751V11.5001C11.8583 11.9149 12.4491 11.9972 12.5631 11.5991L15.0278 3.00138C15.2032 2.39422 15.7165 2.06286 16.2436 2.06286C17.0717 2.06286 17.6722 2.85077 17.4593 3.64617C14.9369 13.059 15.0924 12.4524 15.0924 12.5261V14.4364C15.0924 15.4607 16.3719 15.8678 16.953 15.1767L18.8943 12.878C19.5566 12.221 20.4346 11.8594 21.3684 11.8594C22.1217 11.8594 22.6248 12.7637 21.9886 13.4389L15.2924 20.4943C14.1389 21.6462 12.6061 22.2805 10.9757 22.2805H9.70228C8.24384 22.2805 6.86472 21.7203 5.81903 20.7032C5.67669 20.5648 5.44922 20.568 5.31087 20.7102C5.17248 20.8525 5.17562 21.08 5.31788 21.2184C6.49855 22.3667 8.05559 22.9991 9.70224 22.9991H10.9757C12.9214 22.9991 14.7184 22.1514 15.8103 20.9925L22.5069 13.9368C23.5688 12.8691 22.7893 11.1408 21.3684 11.1408Z" fill="black"/>
<path d="M10.0616 20.4387C10.0616 17.927 11.9359 15.7833 14.4213 15.4523C14.6179 15.4261 14.7562 15.2454 14.73 15.0487C14.7038 14.852 14.5237 14.7141 14.3263 14.7399C11.4854 15.1184 9.34296 17.5683 9.34296 20.4387C9.34296 20.6371 9.50385 20.798 9.7023 20.798C9.90075 20.798 10.0616 20.6371 10.0616 20.4387Z" fill="black"/>
</g>
<defs>
<clipPath id="clip0">
<rect width="23" height="23" fill="white"/>
</clipPath>
</defs>
</svg>
