<svg width="31" height="31" viewBox="0 0 31 31" fill="none" xmlns="http://www.w3.org/2000/svg">
<path d="M1.85815 24.041L0.616979 28.0763L0.03669 29.9615C-0.152634 30.5765 0.423549 31.1527 1.0386 30.9633L2.9237 30.383L6.9591 29.1419L1.85815 24.041Z" fill="#DC8744"/>
<path d="M2.9237 30.383L1.0386 30.9633C0.423547 31.1526 -0.15257 30.5765 0.0367542 29.9615L0.617043 28.0763L2.9237 30.383Z" fill="#3A556A"/>
<path d="M4.40873 26.5912L25.6608 5.33908L23.1105 2.78878L1.85843 24.0409L4.40873 26.5912Z" fill="#FCD462"/>
<path d="M6.95902 29.1414L28.2111 7.88931L25.6608 5.33902L4.40873 26.5911L6.95902 29.1414Z" fill="#F6C358"/>
<path d="M28.2125 7.8883L23.1116 2.78748L25.6568 0.242237C25.9798 -0.0807201 26.5034 -0.0807201 26.8263 0.242237L30.7576 4.17361C31.0806 4.49656 31.0806 5.02017 30.7576 5.34306L28.2125 7.8883Z" fill="#E56353"/>
<path d="M26.0503 10.0503L26.9005 9.2001L21.7996 4.09918L20.9494 4.94937L26.0503 10.0503Z" fill="#EBF0F3"/>
<path d="M24.3492 11.7498L25.1994 10.8996L20.0985 5.79868L19.2483 6.64887L24.3492 11.7498Z" fill="#EBF0F3"/>
</svg>
