<svg width="7" height="8" viewBox="0 0 7 8" fill="none" xmlns="http://www.w3.org/2000/svg">
<g clip-path="url(#clip0)">
<path d="M2.43664 5.61565L1.85332 5.08637C1.82349 5.05864 1.78155 5.04447 1.73899 5.04773C1.69672 5.0505 1.65785 5.06981 1.63253 5.10066L0.0293008 7.08542C-0.0190275 7.14388 -0.00597133 7.22682 0.0584618 7.27066C0.110317 7.30594 0.1816 7.30594 0.233455 7.27066L2.42087 5.81517C2.48584 5.77199 2.49994 5.68919 2.45235 5.63025C2.44793 5.62479 2.44308 5.61964 2.4378 5.61485L2.43664 5.61565Z" fill="#CFD8DC"/>
<path d="M4.3324 4.68943L2.87413 3.36627C2.6288 3.19296 2.32314 3.10517 2.01258 3.11883C1.60605 3.10593 1.21108 3.24292 0.917708 3.49858C0.680879 3.71346 0.705378 4.04557 0.990617 4.48593C1.26 4.86918 1.57814 5.22233 1.93849 5.53811C2.5186 6.0642 3.25094 6.61093 3.78467 6.61093C3.9351 6.61439 4.08041 6.56133 4.18629 6.46431C4.79351 5.91362 4.64214 4.97074 4.3324 4.68943Z" fill="#D32F2F"/>
<path d="M5.49902 3.63089L4.04074 2.30772C3.98379 2.25607 3.89148 2.25607 3.83453 2.30772L2.66791 3.36625C2.47717 3.53932 2.49292 3.92198 3.10539 4.47956C3.50525 4.84237 3.82403 4.97442 4.05036 4.97442C4.15511 4.97778 4.25687 4.94245 4.33239 4.87651L5.49901 3.81798C5.55595 3.76631 5.55595 3.68256 5.49902 3.63089Z" fill="#F44336"/>
<path d="M6.98879 3.27708C6.96624 3.2276 6.91305 3.19532 6.85404 3.19531C6.53789 3.19531 5.84374 2.88516 5.35319 2.44005C4.86263 1.99494 4.52081 1.36537 4.52081 1.07825C4.52094 1.00517 4.45577 0.945831 4.37523 0.945694C4.33641 0.945632 4.29915 0.959625 4.27173 0.98457C3.67616 1.52522 3.49009 2.4472 4.41756 3.28873C4.7704 3.64451 5.26706 3.85541 5.79417 3.8733C6.23261 3.86874 6.65102 3.70601 6.957 3.42104C6.99866 3.38329 7.01119 3.3265 6.98879 3.27708Z" fill="#D32F2F"/>
<path d="M6.08234 1.77849C5.46461 1.21826 4.90609 0.945953 4.37499 0.945953C4.29445 0.945953 4.22916 1.0052 4.22916 1.07827C4.22916 1.47338 4.64098 2.1683 5.14671 2.62743C5.65244 3.08657 6.41891 3.45998 6.85406 3.45998C6.9346 3.45998 6.99989 3.40073 6.99989 3.32765C6.99989 2.8455 6.69978 2.33872 6.08234 1.77849Z" fill="#F44336"/>
</g>
<defs>
<clipPath id="clip0">
<rect width="7" height="6.35144" fill="white" transform="translate(0 0.945694)"/>
</clipPath>
</defs>
</svg>
