<svg width="18" height="16" className="react-icon" viewBox="0 0 18 16" fill="none" xmlns="http://www.w3.org/2000/svg">
<path d="M14.1345 5.82135C13.9697 5.77042 13.7989 5.72224 13.6231 5.67667C13.652 5.57078 13.6785 5.46626 13.7021 5.36352C14.0893 3.6765 13.8361 2.31741 12.9718 1.86995C12.1429 1.44089 10.7875 1.88825 9.4185 2.95775C9.28686 3.06059 9.15485 3.16947 9.0229 3.28358C8.93498 3.20808 8.8472 3.13512 8.75964 3.06533C7.32493 1.92176 5.88685 1.43984 5.02333 1.88861C4.19531 2.31891 3.95009 3.59658 4.29858 5.19539C4.33224 5.34981 4.37157 5.50752 4.41606 5.66786C4.21253 5.71972 4.01604 5.77502 3.82804 5.83384C2.14599 6.36028 1.07176 7.18535 1.07176 8.04117C1.07176 8.92506 2.22495 9.81162 3.97693 10.3492C4.11519 10.3916 4.25865 10.4317 4.4065 10.4698C4.35851 10.6432 4.31677 10.8131 4.28173 10.9789C3.94944 12.55 4.20894 13.7974 5.03476 14.225C5.88776 14.6666 7.31933 14.2127 8.71332 13.1189C8.8235 13.0324 8.93407 12.9407 9.04484 12.8446C9.18842 12.9687 9.33177 13.0862 9.47435 13.1963C10.8246 14.2394 12.1582 14.6606 12.9832 14.2318C13.8354 13.789 14.1123 12.4489 13.7528 10.8184C13.7253 10.6939 13.6934 10.5667 13.6575 10.4372C13.758 10.4105 13.8567 10.383 13.9529 10.3544C15.7743 9.81263 16.9593 8.93686 16.9593 8.04117C16.9593 7.18226 15.8505 6.35163 14.1345 5.82135Z" fill="#53C1DE"/>
<path d="M13.7395 9.77603C13.6526 9.80185 13.5635 9.8268 13.4727 9.851C13.2716 9.27957 13.0002 8.67193 12.6681 8.04414C12.985 7.43131 13.2459 6.83144 13.4414 6.26372C13.6039 6.30594 13.7616 6.35046 13.9136 6.39746C15.3838 6.8518 16.2806 7.52356 16.2806 8.04117C16.2806 8.59252 15.3121 9.30825 13.7395 9.77603ZM13.087 10.9368C13.246 11.6577 13.2687 12.3096 13.1634 12.8191C13.0687 13.277 12.8784 13.5823 12.6432 13.7045C12.1425 13.9647 11.0717 13.6265 9.917 12.7345C9.78462 12.6322 9.65128 12.523 9.51752 12.4075C9.96519 11.9679 10.4126 11.457 10.8493 10.8895C11.6173 10.8283 12.3429 10.7283 13.001 10.5918C13.0334 10.7091 13.0622 10.8242 13.087 10.9368ZM6.4882 13.6596C5.99902 13.8147 5.60941 13.8191 5.3739 13.6972C4.87276 13.4377 4.66442 12.4361 4.9486 11.0925C4.98115 10.9387 5.0199 10.7806 5.06455 10.619C5.71538 10.7482 6.43569 10.8412 7.20557 10.8972C7.64518 11.4525 8.10552 11.9629 8.56942 12.4098C8.46806 12.4977 8.36711 12.5813 8.26671 12.6601C7.6503 13.1438 7.03259 13.487 6.4882 13.6596ZM4.19645 9.77265C3.42176 9.53496 2.78199 9.22603 2.34345 8.88891C1.94941 8.58597 1.75046 8.28522 1.75046 8.04117C1.75046 7.52184 2.61296 6.85942 4.05146 6.40918C4.226 6.35455 4.40872 6.30307 4.59833 6.25471C4.79714 6.83525 5.05793 7.44222 5.37266 8.056C5.05386 8.67889 4.78936 9.29553 4.5886 9.88288C4.45343 9.848 4.32246 9.81129 4.19645 9.77265ZM4.96467 5.07838C4.66609 3.70856 4.86439 2.67522 5.36338 2.41592C5.8949 2.13969 7.07023 2.53354 8.30899 3.52096C8.38817 3.58407 8.46767 3.65012 8.54739 3.71846C8.08578 4.16342 7.62966 4.66999 7.19395 5.222C6.44675 5.28417 5.7315 5.38404 5.07388 5.51778C5.03254 5.36848 4.99592 5.22179 4.96467 5.07838ZM11.8178 6.5975C11.6606 6.35374 11.4992 6.11574 11.3347 5.88424C11.8416 5.94176 12.3273 6.01813 12.7834 6.11158C12.6465 6.50553 12.4758 6.91743 12.2749 7.33969C12.1308 7.09407 11.9784 6.84642 11.8178 6.5975ZM9.02314 4.1539C9.33619 4.45836 9.6497 4.79829 9.95806 5.16711C9.64733 5.15394 9.33274 5.14708 9.01556 5.14708C8.70137 5.14708 8.38911 5.15378 8.08029 5.16673C8.38897 4.80134 8.70519 4.46187 9.02314 4.1539ZM6.21053 6.60172C6.05349 6.84617 5.90389 7.09247 5.76204 7.33923C5.56439 6.91844 5.39531 6.50466 5.25719 6.10513C5.71049 6.01406 6.19387 5.93961 6.69756 5.88317C6.53071 6.1168 6.36799 6.35656 6.21053 6.60167V6.60172ZM6.71207 10.2426C6.19166 10.1905 5.70101 10.1199 5.24783 10.0313C5.38815 9.62467 5.56097 9.20206 5.7628 8.77221C5.90502 9.01879 6.05521 9.2652 6.21321 9.51018H6.21324C6.37418 9.75976 6.54092 10.0042 6.71207 10.2426ZM9.04191 11.9714C8.72023 11.6598 8.39937 11.3152 8.08601 10.9445C8.39021 10.9552 8.70035 10.9607 9.01556 10.9607C9.33939 10.9607 9.65951 10.9541 9.97461 10.9415C9.66523 11.3189 9.35285 11.6641 9.04191 11.9714ZM12.2814 8.7503C12.4937 9.1848 12.6727 9.6052 12.8149 10.0049C12.3542 10.0993 11.8569 10.1753 11.3328 10.2317C11.4978 9.9971 11.6606 9.75501 11.8206 9.50599C11.9824 9.25405 12.1361 9.00173 12.2814 8.7503ZM11.2327 9.2016C10.9843 9.58817 10.7293 9.95719 10.4705 10.3055C9.99904 10.3358 9.51198 10.3514 9.01556 10.3514C8.52114 10.3514 8.04022 10.3376 7.57711 10.3106C7.30783 9.9577 7.04732 9.58758 6.80055 9.20493H6.80061C6.55449 8.82332 6.32797 8.43848 6.12272 8.0558C6.32792 7.67223 6.55384 7.28696 6.79855 6.90603L6.79849 6.90611C7.04384 6.52416 7.30206 6.15585 7.56886 5.80516C8.04135 5.77309 8.52587 5.75636 9.01553 5.75636H9.01556C9.50743 5.75636 9.99256 5.77322 10.4649 5.80556C10.7276 6.15369 10.9841 6.52081 11.2304 6.90281C11.4795 7.28909 11.7084 7.6718 11.9153 8.04714C11.709 8.42893 11.4807 8.8155 11.2327 9.2016ZM12.6328 2.39779C13.1648 2.67322 13.3717 3.78399 13.0374 5.24055C13.0161 5.3335 12.9921 5.42816 12.966 5.5241C12.3069 5.38757 11.5911 5.28597 10.8417 5.22286C10.4052 4.66478 9.95277 4.15743 9.49869 3.71819C9.62077 3.61275 9.74268 3.51222 9.86409 3.41735C11.037 2.50102 12.1333 2.13923 12.6328 2.39779Z" fill="white"/>
<path d="M9.01555 6.76759C9.79907 6.76759 10.4343 7.33778 10.4343 8.04117C10.4343 8.74454 9.79907 9.31475 9.01555 9.31475C8.23204 9.31475 7.59685 8.74454 7.59685 8.04117C7.59685 7.33778 8.23204 6.76759 9.01555 6.76759Z" fill="#53C1DE"/>
</svg>
