<svg width="23" height="23" viewBox="0 0 23 23" fill="none" xmlns="http://www.w3.org/2000/svg">
<path d="M17.4806 10.6782C16.8107 10.6782 16.2677 11.2212 16.2677 11.891V10.9263C16.2677 10.2565 15.7247 9.71346 15.0548 9.71346C14.3849 9.71346 13.8419 10.2565 13.8419 10.9263C13.8419 10.2565 13.2989 9.71346 12.629 9.71346C11.9592 9.71346 11.4161 10.2565 11.4161 10.9263V6.34531C11.4161 5.67543 10.8731 5.13242 10.2033 5.13242C9.53338 5.13242 8.99036 5.67543 8.99036 6.34531V10.1432V16.082L7.5269 13.6807C7.16712 13.0904 6.40196 12.8951 5.80324 13.2408C5.22582 13.5741 5.00346 14.2966 5.29338 14.8969L7.36262 19.1816C8.35755 21.2417 10.4436 22.5508 12.7314 22.5508C16.0241 22.5508 18.6934 19.8815 18.6934 16.5887V11.891C18.6935 11.2212 18.1505 10.6782 17.4806 10.6782Z" fill="#FFCDAC"/>
<path d="M10.2032 3.66863C10.4514 3.66863 10.6525 3.46752 10.6525 3.21942V0.449219C10.6525 0.201115 10.4514 0 10.2032 0C9.95514 0 9.75403 0.201115 9.75403 0.449219V3.21942C9.75403 3.46747 9.95514 3.66863 10.2032 3.66863Z" fill="black"/>
<path d="M12.8793 6.34593C12.8793 6.59404 13.0804 6.79515 13.3286 6.79515H16.0988C16.3469 6.79515 16.548 6.59404 16.548 6.34593C16.548 6.09783 16.3469 5.89671 16.0988 5.89671H13.3286C13.0804 5.89671 12.8793 6.09783 12.8793 6.34593Z" fill="black"/>
<path d="M7.52589 6.34472C7.52589 6.09662 7.32477 5.8955 7.07667 5.8955H4.30652C4.05842 5.8955 3.8573 6.09662 3.8573 6.34472C3.8573 6.59282 4.05842 6.79394 4.30652 6.79394H7.07672C7.32477 6.79394 7.52589 6.59282 7.52589 6.34472Z" fill="black"/>
<path d="M7.34564 4.12275C7.43337 4.21049 7.54833 4.25433 7.66328 4.25433C7.77824 4.25433 7.89324 4.21049 7.98092 4.12275C8.15634 3.94733 8.15634 3.66289 7.98092 3.48742L6.67302 2.17952C6.4976 2.0041 6.21316 2.0041 6.03769 2.17952C5.86227 2.35494 5.86227 2.63939 6.03769 2.81485L7.34564 4.12275Z" fill="black"/>
<path d="M12.7429 4.25518C12.8578 4.25518 12.9728 4.21134 13.0605 4.12361L14.3684 2.81571C14.5438 2.64029 14.5438 2.35584 14.3684 2.18038C14.193 2.00496 13.9085 2.00496 13.7331 2.18038L12.4252 3.48828C12.2498 3.6637 12.2498 3.94814 12.4252 4.12361C12.5129 4.21134 12.6279 4.25518 12.7429 4.25518Z" fill="black"/>
<path d="M17.4806 10.229C17.1773 10.229 16.8931 10.311 16.648 10.4535C16.4438 9.76669 15.807 9.26424 15.0548 9.26424C14.5767 9.26424 14.1455 9.46742 13.8419 9.79162C13.5384 9.46742 13.1071 9.26424 12.629 9.26424C12.3538 9.26424 12.0942 9.33189 11.8654 9.4508V6.34531C11.8654 5.42881 11.1197 4.6832 10.2032 4.6832C9.28675 4.6832 8.54114 5.42881 8.54114 6.34531V8.7139C8.54114 8.96201 8.74225 9.16312 8.99036 9.16312C9.23846 9.16312 9.43957 8.96201 9.43957 8.7139V6.34531C9.43957 5.92421 9.78215 5.58163 10.2032 5.58163C10.6243 5.58163 10.9669 5.92421 10.9669 6.34531V13.8656C10.9669 14.1137 11.168 14.3148 11.4161 14.3148C11.6642 14.3148 11.8654 14.1137 11.8654 13.8656V10.9263C11.8654 10.5053 12.2079 10.1627 12.629 10.1627C13.0501 10.1627 13.3927 10.5053 13.3927 10.9263V11.3599V13.8656C13.3927 14.1137 13.5938 14.3148 13.8419 14.3148C14.09 14.3148 14.2911 14.1137 14.2911 13.8656V11.3599V10.9263C14.2911 10.5053 14.6337 10.1627 15.0548 10.1627C15.4759 10.1627 15.8185 10.5053 15.8185 10.9263V11.891V12.668V13.8656C15.8185 14.1137 16.0196 14.3149 16.2677 14.3149C16.5158 14.3149 16.7169 14.1137 16.7169 13.8656V12.668V11.891C16.7169 11.4699 17.0595 11.1274 17.4806 11.1274C17.9017 11.1274 18.2443 11.4699 18.2443 11.891V16.5887C18.2443 16.9233 18.2141 17.2584 18.1546 17.5845C18.1101 17.8286 18.2718 18.0625 18.5159 18.107C18.5432 18.112 18.5703 18.1144 18.597 18.1144C18.8099 18.1144 18.9989 17.9625 19.0385 17.7457C19.1076 17.3665 19.1427 16.9772 19.1427 16.5887V11.891C19.1427 10.9746 18.3971 10.229 17.4806 10.229Z" fill="black"/>
<path d="M16.4911 20.6206C15.4675 21.5756 14.1322 22.1016 12.7314 22.1016C10.6297 22.1016 8.68112 20.8787 7.76714 18.9861L5.69791 14.7016C5.51125 14.3152 5.65622 13.8444 6.02786 13.6298C6.41212 13.408 6.91241 13.5357 7.14331 13.9145L8.60682 16.3158C8.71162 16.4877 8.918 16.5689 9.11183 16.5145C9.30567 16.4601 9.43963 16.2834 9.43963 16.082V11.6797C9.43963 11.4316 9.23851 11.2305 8.99041 11.2305C8.74231 11.2305 8.54119 11.4316 8.54119 11.6797V14.4818L7.91049 13.447C7.41967 12.6416 6.39536 12.3802 5.57864 12.8517C4.80171 13.3003 4.49872 14.2845 4.88891 15.0923L6.95814 19.3769C7.4831 20.4638 8.30099 21.3776 9.32342 22.0192C10.3458 22.6608 11.5243 23 12.7314 23C14.3605 23 15.9134 22.3883 17.104 21.2776C17.2854 21.1083 17.2953 20.8241 17.126 20.6426C16.9568 20.4612 16.6725 20.4514 16.4911 20.6206Z" fill="black"/>
<path d="M17.9706 18.9871C17.8525 18.9871 17.7366 19.0352 17.653 19.1187C17.5695 19.2023 17.5214 19.3182 17.5214 19.4363C17.5214 19.5549 17.5695 19.6704 17.653 19.7539C17.7366 19.8375 17.8525 19.8856 17.9706 19.8856C18.0888 19.8856 18.2047 19.8375 18.2882 19.7539C18.3718 19.6704 18.4199 19.5549 18.4199 19.4363C18.4199 19.3182 18.3718 19.2023 18.2882 19.1187C18.2047 19.0352 18.0888 18.9871 17.9706 18.9871Z" fill="black"/>
<path d="M8.9903 10.6914C9.10844 10.6914 9.22434 10.6433 9.30789 10.5598C9.39145 10.4762 9.43951 10.3603 9.43951 10.2422C9.43951 10.124 9.39145 10.0081 9.30789 9.92459C9.22434 9.84103 9.10844 9.79297 8.9903 9.79297C8.87215 9.79297 8.75625 9.84103 8.6727 9.92459C8.58914 10.0081 8.54108 10.124 8.54108 10.2422C8.54108 10.3603 8.58914 10.4762 8.6727 10.5598C8.75625 10.6433 8.87215 10.6914 8.9903 10.6914Z" fill="black"/>
</svg>
